<svg xmlns="http://www.w3.org/2000/svg" xmlns:xlink="http://www.w3.org/1999/xlink" xmlns:inkscape="http://www.inkscape.org/namespaces/inkscape" version="1.1" width="635.142" height="423.349" viewBox="0 0 635.142 423.349">
<defs>
<clipPath id="clip_0">
<path transform="matrix(1,0,0,-1,0,423.349)" d="M0 423.349H635.142V0H0Z"/>
</clipPath>
</defs>
<g clip-path="url(#clip_0)">
<path transform="matrix(1,0,0,-1,309.1795,231.5628)" d="M0 0C0-3.486 .458-6.627 1.375-9.422 2.291-12.217 3.606-14.592 5.319-16.545 7.033-18.499 9.129-20.001 11.608-21.053 14.088-22.105 16.89-22.631 20.016-22.631 23.111-22.631 25.877-22.105 28.311-21.053 30.745-20.001 32.811-18.469 34.51-16.454 36.207-14.441 37.508-11.977 38.408-9.062 39.311-6.146 39.762-2.825 39.762 .901 39.762 4.447 39.311 7.611 38.408 10.392 37.508 13.171 36.207 15.522 34.51 17.446 32.811 19.369 30.737 20.834 28.288 21.842 25.838 22.849 23.082 23.352 20.016 23.352 16.8 23.352 13.953 22.833 11.473 21.797 8.994 20.76 6.904 19.242 5.207 17.243 3.508 15.244 2.216 12.795 1.33 9.896 .443 6.994 0 3.696 0 0M-8.521-.226C-8.521 4.522-7.859 8.806-6.537 12.623-5.215 16.439-3.321 19.692-.856 22.383 1.607 25.072 4.598 27.146 8.115 28.604 11.631 30.062 15.598 30.79 20.016 30.79 24.283 30.79 28.152 30.092 31.624 28.694 35.096 27.297 38.063 25.305 40.527 22.721 42.992 20.136 44.885 17.003 46.207 13.321 47.529 9.64 48.191 5.529 48.191 .992 48.191-3.366 47.561-7.432 46.299-11.202 45.035-14.975 43.188-18.258 40.753-21.053 38.318-23.848 35.328-26.042 31.781-27.635 28.235-29.228 24.178-30.023 19.61-30.023 15.313-30.023 11.436-29.325 7.979-27.928 4.523-26.53 1.57-24.531-.879-21.932-3.329-19.333-5.215-16.199-6.537-12.532-7.859-8.866-8.521-4.764-8.521-.226" fill="#d78c32"/>
<path transform="matrix(1,0,0,-1,367.2439,201.9895)" d="M0 0H42.15V-7.304H8.115V-24.524H39.58V-31.872H8.115V-58.47H0Z" fill="#d78c32"/>
<path transform="matrix(1,0,0,-1,425.2166,231.5628)" d="M0 0C0-3.486 .459-6.627 1.375-9.422 2.293-12.217 3.607-14.592 5.32-16.545 7.033-18.499 9.129-20.001 11.609-21.053 14.088-22.105 16.891-22.631 20.018-22.631 23.111-22.631 25.877-22.105 28.312-21.053 30.746-20.001 32.813-18.469 34.51-16.454 36.207-14.441 37.508-11.977 38.41-9.062 39.311-6.146 39.762-2.825 39.762 .901 39.762 4.447 39.311 7.611 38.41 10.392 37.508 13.171 36.207 15.522 34.51 17.446 32.813 19.369 30.738 20.834 28.289 21.842 25.84 22.849 23.082 23.352 20.018 23.352 16.801 23.352 13.953 22.833 11.475 21.797 8.994 20.76 6.906 19.242 5.207 17.243 3.51 15.244 2.217 12.795 1.33 9.896 .443 6.994 0 3.696 0 0M-8.52-.226C-8.52 4.522-7.859 8.806-6.535 12.623-5.213 16.439-3.32 19.692-.855 22.383 1.607 25.072 4.6 27.146 8.115 28.604 11.631 30.062 15.6 30.79 20.018 30.79 24.283 30.79 28.154 30.092 31.625 28.694 35.096 27.297 38.064 25.305 40.529 22.721 42.992 20.136 44.887 17.003 46.209 13.321 47.531 9.64 48.191 5.529 48.191 .992 48.191-3.366 47.561-7.432 46.299-11.202 45.037-14.975 43.188-18.258 40.754-21.053 38.32-23.848 35.328-26.042 31.783-27.635 28.236-29.228 24.18-30.023 19.611-30.023 15.313-30.023 11.436-29.325 7.98-27.928 4.523-26.53 1.57-24.531-.879-21.932-3.328-19.333-5.213-16.199-6.535-12.532-7.859-8.866-8.52-4.764-8.52-.226" fill="#d78c32"/>
<path transform="matrix(1,0,0,-1,516.1892,252.7054)" d="M0 0-6.58 5.229-2.568 10.053 5.41 3.832C7.305 5.755 8.738 8.219 9.715 11.225 10.691 14.229 11.182 17.641 11.182 21.458 11.182 25.094 10.73 28.348 9.828 31.218 8.928 34.088 7.619 36.522 5.906 38.521 4.193 40.52 2.104 42.045-.359 43.097-2.824 44.148-5.619 44.675-8.744 44.675-11.871 44.675-14.674 44.148-17.152 43.097-19.633 42.045-21.736 40.52-23.463 38.521-25.191 36.522-26.514 34.088-27.432 31.218-28.348 28.348-28.807 25.094-28.807 21.458-28.807 17.821-28.348 14.561-27.432 11.676-26.514 8.79-25.199 6.349-23.486 4.35-21.773 2.351-19.678 .826-17.197-.226-14.719-1.278-11.9-1.804-8.744-1.804-7.092-1.804-5.545-1.661-4.102-1.375-2.658-1.09-1.291-.632 0 0M6.582-5.229C4.238-6.492 1.805-7.416-.721-8.002-3.244-8.588-5.92-8.881-8.744-8.881-13.193-8.881-17.176-8.198-20.691-6.83-24.207-5.463-27.191-3.479-29.641-.879-32.09 1.72-33.967 4.883-35.275 8.61-36.582 12.336-37.236 16.56-37.236 21.278-37.236 25.996-36.582 30.219-35.275 33.945-33.967 37.672-32.09 40.835-29.641 43.435-27.191 46.034-24.207 48.018-20.691 49.386-17.176 50.753-13.193 51.437-8.744 51.437-4.326 51.437-.367 50.745 3.135 49.363 6.635 47.98 9.604 45.989 12.037 43.39 14.473 40.79 16.342 37.627 17.65 33.9 18.957 30.174 19.611 25.966 19.611 21.278 19.611 16.619 18.973 12.457 17.695 8.79 16.418 5.123 14.457 1.787 11.813-1.218L19.025-6.988 15.059-11.856Z" fill="#d78c32"/>
<path transform="matrix(1,0,0,-1,335.4121,141.56259)" d="M0 0C1.256 0 2.303 .419 3.14 1.256 3.977 2.094 4.396 3.14 4.396 4.396 4.396 5.653 3.977 6.707 3.14 7.559 2.303 8.412 1.256 8.838 0 8.838-1.256 8.838-2.304 8.412-3.141 7.559-3.978 6.707-4.396 5.653-4.396 4.396-4.396 3.14-3.978 2.094-3.141 1.256-2.304 .419-1.256 0 0 0" fill="#2a4556"/>
<path transform="matrix(1,0,0,-1,347.7487,141.56259)" d="M0 0C.628 0 1.211 .112 1.75 .337 2.288 .561 2.76 .876 3.163 1.279 3.567 1.683 3.881 2.147 4.106 2.67 4.329 3.193 4.441 3.769 4.441 4.396 4.441 5.025 4.329 5.608 4.106 6.147 3.881 6.684 3.567 7.156 3.163 7.559 2.76 7.963 2.288 8.278 1.75 8.502 1.211 8.725 .628 8.838 0 8.838-1.227 8.838-2.258 8.412-3.095 7.559-3.933 6.707-4.352 5.653-4.352 4.396-4.352 3.14-3.933 2.094-3.095 1.256-2.258 .419-1.227 0 0 0" fill="#2a4556"/>
<path transform="matrix(1,0,0,-1,501.0405,141.56259)" d="M0 0C1.256 0 2.311 .419 3.163 1.256 4.016 2.094 4.441 3.14 4.441 4.396 4.441 5.653 4.016 6.707 3.163 7.559 2.311 8.412 1.256 8.838 0 8.838-1.256 8.838-2.303 8.412-3.14 7.559-3.978 6.707-4.396 5.653-4.396 4.396-4.396 3.14-3.978 2.094-3.14 1.256-2.303 .419-1.256 0 0 0" fill="#2a4556"/>
<path transform="matrix(1,0,0,-1,507.9496,178.1685)" d="M0 0H-9.467C-10.572 0-11.582 .156-12.494 .47-13.407 .785-14.214 1.21-14.917 1.749-15.62 2.287-16.225 2.922-16.734 3.655-17.242 4.389-17.646 5.173-17.945 6.011-18.244 6.758-18.454 7.529-18.572 8.321-18.693 9.114-18.752 9.899-18.752 10.677-18.752 11.992-18.572 13.294-18.214 14.579-17.855 15.864-17.294 17.016-16.531 18.034-15.769 19.051-14.805 19.872-13.638 20.501-12.472 21.129-11.081 21.443-9.467 21.443H0ZM-157.688 0H-167.154C-168.292 0-169.315 .156-170.228 .47-171.14 .785-171.948 1.21-172.65 1.749-173.353 2.287-173.951 2.922-174.444 3.655-174.938 4.389-175.335 5.173-175.633 6.011-175.963 6.758-176.187 7.529-176.306 8.321-176.426 9.114-176.485 9.899-176.485 10.677-176.485 11.992-176.299 13.294-175.925 14.579-175.551 15.864-174.983 17.016-174.22 18.034-173.458 19.051-172.493 19.872-171.327 20.501-170.16 21.129-168.769 21.443-167.154 21.443H-157.688ZM7.626 26.109C7.357 26.767 6.983 27.349 6.505 27.858 6.027 28.367 5.457 28.771 4.801 29.069 4.141 29.368 3.439 29.519 2.691 29.519H-9.467C-12.308 29.519-14.805 28.988-16.958 27.925-19.111 26.863-20.913 25.451-22.364 23.686-23.814 21.921-24.913 19.911-25.661 17.653-26.409 15.394-26.783 13.069-26.783 10.677-26.783 9.031-26.566 7.312-26.131 5.518-25.698 3.723-25.018 1.884-24.09 0H-33.825-34.409-52.085-53.026-70.343-71.286-88.602-89.544-106.86-107.803-135.941-136.883-149.658V24.001C-149.658 24.747-149.8 25.451-150.084 26.109-150.368 26.767-150.75 27.349-151.228 27.858-151.707 28.367-152.268 28.771-152.91 29.069-153.553 29.368-154.25 29.519-154.996 29.519H-167.154C-169.996 29.519-172.493 28.988-174.647 27.925-176.8 26.863-178.61 25.451-180.075 23.686-181.54 21.921-182.647 19.911-183.394 17.653-184.142 15.394-184.516 13.069-184.516 10.677-184.516 9.031-184.291 7.312-183.843 5.518-183.394 3.723-182.707 1.884-181.779 0H-189.585C-189.705 0-189.809-.016-189.899-.045-191.903-.016-193.533 .246-194.789 .74-196.045 1.233-197.025 1.89-197.728 2.713-198.43 3.535-198.909 4.485-199.163 5.562-199.417 6.638-199.544 7.79-199.544 9.016-199.544 10.661-199.372 12.262-199.028 13.817-198.685 15.372-198.244 16.732-197.705 17.899-198.363 18.228-198.977 18.542-199.544 18.841-200.113 19.139-200.674 19.431-201.226 19.717-201.781 20.001-202.348 20.299-202.931 20.614-203.515 20.928-204.135 21.263-204.793 21.623-205.571 20.007-206.236 18.101-206.789 15.903-207.344 13.704-207.62 11.453-207.62 9.151-207.62 6.998-207.305 4.889-206.677 2.826-206.05 .762-205.017-1.077-203.582-2.692-202.147-4.308-200.285-5.608-197.997-6.595-195.708-7.583-192.905-8.075-189.585-8.075H-136.883-135.941-107.803-106.86-89.544-88.602-71.286-70.343-53.026-52.085-34.409-33.825 4.082C5.188-8.075 6.131-7.687 6.909-6.909 7.686-6.132 8.076-5.174 8.076-4.038L8.031 24.001C8.031 24.747 7.896 25.451 7.626 26.109" fill="#2a4556"/>
<path transform="matrix(1,0,0,-1,533.4311,102.0397)" d="M0 0C-.868 .329-1.63 .674-2.288 1.032-2.886 1.361-3.185 1.855-3.185 2.513V2.692C-3.156 3.111-2.991 3.485-2.692 3.814-2.453 4.053-2.124 4.173-1.705 4.173H-1.481C-1.332 4.173-1.152 4.143-.942 4.083-.733 4.023-.554 3.904-.404 3.724V3.814C-.195 3.663-.061 3.387 0 2.984 .059 2.58 .09 2.153 .09 1.705 .09 1.166 .059 .598 0 0M1.929-.583C2.019-.343 2.123 .022 2.243 .517 2.362 1.011 2.46 1.555 2.534 2.153 2.609 2.752 2.661 3.381 2.691 4.038V4.441C2.691 4.92 2.661 5.369 2.601 5.788 2.482 6.296 2.288 6.721 2.019 7.066 1.749 7.41 1.375 7.597 .897 7.628H.717C-.061 7.628-.838 7.432-1.616 7.044-2.453 6.595-3.193 6.012-3.836 5.295-4.48 4.576-4.98 3.783-5.338 2.917-5.638 2.198-5.788 1.51-5.788 .853-5.788 .674-5.773 .494-5.743 .314-5.653-.523-5.279-1.285-4.621-1.974-3.963-2.662-2.931-3.171-1.526-3.498-2.363-4.486-3.201-5.301-4.038-5.943-4.876-6.587-5.81-7.177-6.842-7.716-7.873-8.254-9.056-8.793-10.386-9.331-11.716-9.869-13.295-10.513-15.119-11.259-15.148-11.259-15.163-11.275-15.163-11.304H-15.074C-15.014-11.335-14.835-11.365-14.535-11.394-14.237-11.424-13.81-11.455-13.257-11.484-12.704-11.514-11.994-11.559-11.126-11.619H-10.723C-9.585-11.619-8.435-11.394-7.268-10.946-6.012-10.438-4.846-9.802-3.769-9.039-2.692-8.276-1.757-7.455-.964-6.572-.173-5.69 .388-4.905 .717-4.217L3.05-4.754 3.902-1.166Z" fill="#2a4556"/>
<path transform="matrix(1,0,0,-1,528.9897,121.957)" d="M0 0C-.33 .417-.494 .881-.494 1.39-.494 1.929-.314 2.429 .045 2.893 .403 3.357 .987 3.588 1.794 3.588L6.773 3.543V7.267H1.794C.897 7.267 .096 7.102-.606 6.773-1.309 6.444-1.893 6.003-2.355 5.451-2.82 4.896-3.17 4.268-3.41 3.565-3.65 2.863-3.769 2.137-3.769 1.39-3.769 1.032-3.746 .672-3.702 .313-3.657-.045-3.56-.39-3.41-.719H-5.115V-4.441H7.177V-.719H1.569C.852-.659 .328-.42 0 0" fill="#2a4556"/>
<path transform="matrix(1,0,0,-1,0,423.349)" d="M526.97 237.195H535.001V291.029H526.97Z" fill="#2a4556"/>
<path transform="matrix(1,0,0,-1,228.9536,128.79309)" d="M0 0C.273-1.458 .422-2.96 .422-4.498 .422-11.621-2.641-18.028-7.52-22.476 4.283-28.376 12.412-40.577 12.412-54.647V-122.829C12.412-125.919 9.898-128.433 6.808-128.433H-59.559V-121.046H-83.154V-128.433H-130.607V-152.092H34.963C35.574-152.092 36.07-151.595 36.07-150.983V-55.618C36.07-30.854 21.164-9.343 0 0" fill="#2a4556"/>
<path transform="matrix(1,0,0,-1,180.7327,133.2909)" d="M0 0C0 1.442 .133 2.852 .373 4.225-10.66-.734-20.162-9.006-26.531-19.679-30.069-25.592-32.522-31.995-33.828-38.727-34.561-42.435-34.933-46.278-34.933-50.15V-72.067-74.539H-11.338-11.275V-50.835C-11.275-36.807-3.284-24.42 8.293-18.285 3.212-13.827 0-7.291 0 0" fill="#2a4556"/>
<path transform="matrix(1,0,0,-1,195.8657,162.77262)" d="M0 0C-.174 .005-.347 .007-.52 .007-1.168 .007-1.828-.024-2.49-.087V-52.047C-2.49-54.596-4.322-56.807-6.791-57.291-7.138-57.369-7.493-57.408-7.852-57.408H-19.075-26.471-50.066-62.817-69.079C-71.697-57.408-73.796-55.354-73.86-52.669L-74.303 4.874-74.398 16.437C-74.363 36.23-58.234 52.332-38.444 52.332-33.018 52.332-27.801 51.145-22.98 48.825-22.98 48.825-16.651 45.772-13.137 39.135-9.56 47.396-1.538 53.282 7.916 53.77 4.538 57.948 .634 61.617-3.668 64.713-8 60.725-13.781 58.288-20.133 58.288-27.438 58.288-33.986 61.513-38.444 66.612-42.902 61.513-49.45 58.288-56.755 58.288-63.119 58.288-68.91 60.735-73.244 64.736-88.665 53.585-98.057 35.509-98.057 16.378L-97.52-52.452V-81.066H-68.297-50.066-26.471-19.737 21.168V-22.192C21.168-10.21 11.681-.254 0 0" fill="#d78c32"/>
<path transform="matrix(1,0,0,-1,175.7327,62.66269)" d="M0 0C-5.983 0-11.258-3.006-14.415-7.586-16.357-10.405-17.5-13.818-17.5-17.5-17.5-19.868-17.025-22.124-16.172-24.184-15.699-25.328-15.108-26.409-14.415-27.415-11.258-31.995-5.983-35.001 0-35.001 3.896-35.001 7.483-33.712 10.391-31.559 14.697-28.371 17.5-23.269 17.5-17.5 17.5-7.835 9.665 0 0 0" fill="#d78c32"/>
<path transform="matrix(1,0,0,-1,139.1104,62.66269)" d="M0 0C-9.665 0-17.5-7.835-17.5-17.5-17.5-23.25-14.716-28.335-10.435-31.526-7.519-33.699-3.916-35.001 0-35.001 5.983-35.001 11.258-31.995 14.415-27.415 15.113-26.402 15.706-25.312 16.181-24.16 17.027-22.106 17.5-19.859 17.5-17.5 17.5-13.818 16.357-10.405 14.415-7.586 11.258-3.006 5.983 0 0 0" fill="#d78c32"/>
<path transform="matrix(1,0,0,-1,220.9106,125.92099)" d="M0 0C-2.784 5.977-8.828 10.13-15.856 10.13-17.092 10.13-18.297 9.999-19.46 9.755-24.998 8.596-29.562 4.815-31.821-.225-32.276-1.238-32.633-2.302-32.889-3.406-33.185-4.681-33.357-6.004-33.357-7.37-33.357-13.976-29.694-19.722-24.292-22.701-21.79-24.081-18.916-24.87-15.856-24.87-12.694-24.87-9.736-24.019-7.176-22.552-1.911-19.535 1.644-13.873 1.644-7.37 1.644-4.733 1.044-2.242 0 0" fill="#2a4556"/>
</g>
</svg>
