<?xml version="1.0" encoding="UTF-8"?>
<svg version="1.1" xmlns="http://www.w3.org/2000/svg" width="641" height="696">
<path d="M0 0 C211.53 0 423.06 0 641 0 C641 229.68 641 459.36 641 696 C429.47 696 217.94 696 0 696 C0 466.32 0 236.64 0 0 Z " fill="#FEFEFE" transform="translate(0,0)"/>
<path d="M0 0 C0.66 0 1.32 0 2 0 C3.19829132 1.4534249 4.39406748 2.90904927 5.57275391 4.37841797 C16.28640647 16.5508573 34.62973796 23.29520422 50.46875 24.38671875 C68.1342158 25.07540484 87.66457459 20.28783602 101.1328125 8.41796875 C103.25471275 6.80656751 104.31965467 6.05490465 107 6 C116.12814761 11.74259051 123.70365721 20.53107871 131.3125 28.125 C132.03190262 28.84263519 132.03190262 28.84263519 132.76583862 29.57476807 C141 37.81122136 141 37.81122136 141 39 C139.83984375 39.15855469 138.6796875 39.31710938 137.484375 39.48046875 C117.8903037 42.3315859 98.97558789 50.3279924 86.72705078 66.70166016 C83.41886953 71.57380748 80.57662468 76.7064394 78 82 C77.34 82 76.68 82 76 82 C74.7734375 80.34765625 74.7734375 80.34765625 73.375 78.0625 C61.23097687 59.45331348 42.64136936 49.78446336 21.3125 45 C4.11619364 42.33970185 -13.33532433 42.97605984 -30 48 C-31.20527344 48.350625 -32.41054687 48.70125 -33.65234375 49.0625 C-47.00832064 53.38929566 -59.61399034 60.54627782 -70 70 C-70.73549072 70.65597168 -70.73549072 70.65597168 -71.48583984 71.32519531 C-85.88630452 84.31350253 -95.5626009 99.78594725 -102 118 C-102.33515625 118.91007812 -102.6703125 119.82015625 -103.015625 120.7578125 C-108.30054989 136.4571482 -107.26764287 153.47389107 -107.17578125 169.78125 C-107.16882674 171.80099101 -107.16333152 173.82073274 -107.1579209 175.84047842 C-107.13109678 185.56049776 -107.06913862 195.28020211 -107 205 C-106.99443557 205.7949437 -106.98887114 206.58988739 -106.98313808 207.40892029 C-106.83271059 228.79876739 -106.62806005 250.18780699 -106.37309074 271.57666016 C-106.25553575 281.44681293 -106.14835932 291.31695761 -106.05486506 301.18736887 C-105.98693444 308.27498469 -105.90786393 315.3624223 -105.82033139 322.4498229 C-105.76893235 326.63308688 -105.72221609 330.81627085 -105.68758202 334.99971008 C-105.65520089 338.88141004 -105.60902193 342.76269974 -105.55212593 346.64411545 C-105.53374742 348.06064096 -105.52034799 349.47724142 -105.51236725 350.89386368 C-105.50070636 352.828501 -105.46916515 354.76298779 -105.43669128 356.6973877 C-105.41871632 358.31602093 -105.41871632 358.31602093 -105.40037823 359.96735382 C-104.91265865 363.66156297 -104.07772796 365.8934404 -102 369 C-97.0224353 372.66407571 -93.09951436 373.58523806 -86.92298889 373.5146637 C-86.13861039 373.52160922 -85.35423189 373.52855475 -84.54608434 373.53571075 C-81.93285389 373.55392308 -79.32053722 373.5437329 -76.70727539 373.53344727 C-74.82761458 373.54050867 -72.94795945 373.54925462 -71.0683136 373.55955505 C-65.97321874 373.58203392 -60.87843475 373.57911277 -55.78330922 373.57023358 C-51.52632337 373.56511912 -47.26939569 373.57242 -43.01241583 373.57970566 C-32.96826769 373.59669993 -22.92427149 373.59314356 -12.88012695 373.57641602 C-2.52523352 373.55949373 7.82923839 373.5753319 18.18408579 373.6076389 C27.08197455 373.63434635 35.97973218 373.6416077 44.877657 373.63312382 C50.18869957 373.62819817 55.49948852 373.6303908 60.81049919 373.65091133 C65.80525052 373.66928654 70.79939615 373.66328706 75.79411507 373.63871193 C77.62423527 373.63370996 79.45440177 373.63717784 81.28448486 373.64986038 C93.02988225 374.05090069 93.02988225 374.05090069 103.60468388 369.65750027 C107.40940752 365.13785748 108.37610193 360.96746484 108.39872742 355.16629028 C108.40537424 354.5037118 108.41202107 353.84113333 108.41886932 353.15847671 C108.43743009 350.95200916 108.43489884 348.74608718 108.43237305 346.53955078 C108.44139448 344.9524713 108.45172263 343.36539878 108.46325684 341.77833557 C108.49080833 337.47922273 108.50010883 333.18024217 108.50611091 328.88105249 C108.51549939 324.38466823 108.54170318 319.88838259 108.56611633 315.39205933 C108.60977196 306.88182178 108.63832468 298.37160338 108.66143972 289.86128795 C108.6884964 280.17082901 108.73240763 270.48046932 108.77772844 260.79008126 C108.8705613 240.86010758 108.94224828 220.93010419 109 201 C111.37638054 200.972809 113.75244401 200.95306969 116.12890625 200.9375 C116.79458618 200.92912109 117.46026611 200.92074219 118.14611816 200.91210938 C133.56620013 200.83654389 148.97622379 208.057307 159.8984375 218.796875 C160.59195312 219.52390625 161.28546875 220.2509375 162 221 C162.94746094 221.93585938 162.94746094 221.93585938 163.9140625 222.890625 C169.18458766 228.41655006 172.96992746 235.01633136 176 242 C176.33748638 242.76737865 176.67497276 243.53475731 177.022686 244.32538986 C180.70074627 253.8447126 180.53879838 262.85610234 180.45410156 272.89550781 C180.45287419 274.80931948 180.45341366 276.72313296 180.45556259 278.63694382 C180.4564603 283.73111127 180.43339032 288.82489776 180.40512085 293.91897583 C180.38222756 298.7108064 180.38126225 303.50254745 180.37841797 308.29443359 C180.35748452 322.27967224 180.30163948 336.26484103 180.25 350.25 C180.1675 381.5175 180.085 412.785 180 445 C61.86 445 -56.28 445 -178 445 C-178.59064014 334.7717833 -178.59064014 334.7717833 -178.765625 296.546875 C-178.77061791 295.45842002 -178.77561083 294.36996504 -178.78075504 293.24852657 C-178.826811 283.20444465 -178.87269652 273.16036198 -178.91781235 263.11627579 C-178.96038202 253.64562465 -179.00340896 244.17497778 -179.05004883 234.7043457 C-179.12827157 218.79084458 -179.19641932 202.87744457 -179.23217773 186.96377563 C-179.24235396 182.66047298 -179.25960251 178.35729483 -179.28344727 174.05404663 C-179.55404138 123.63999356 -179.55404138 123.63999356 -172 100 C-171.7736084 99.26281738 -171.5472168 98.52563477 -171.31396484 97.76611328 C-160.21300394 61.94261633 -136.99846256 30.29076698 -107.796875 6.87109375 C-106 6 -106 6 -104.08203125 6.11328125 C-101.34254196 7.28000558 -99.28084506 8.91397707 -96.9375 10.75 C-80.85751464 22.62967256 -62.32190259 25.83837326 -42.76171875 23.32568359 C-26.91553125 20.91037119 -13.18882848 13.41389112 -2 2 C-1.34 1.34 -0.68 0.68 0 0 Z " fill="#D78C32" transform="translate(251,109)"/>
<path d="M0 0 C37.28210695 10.8542843 68.15490177 47.08046373 86.51171875 79.33984375 C103.40515739 110.17119575 108.32867185 141.98907589 108.24679029 176.66636407 C108.2401479 180.41873342 108.2451756 184.17109081 108.24867249 187.92346191 C108.25368648 195.25142533 108.24810978 202.57934324 108.23882218 209.90730099 C108.22839439 218.44373206 108.22850947 226.98015353 108.22899476 235.51658978 C108.22949413 250.73982919 108.22036452 265.9630475 108.20581055 281.1862793 C108.19169331 295.96037174 108.18464124 310.73444564 108.18530273 325.50854492 C108.18534269 326.42048091 108.18538265 327.33241689 108.18542381 328.2719873 C108.18546417 329.18234991 108.18550452 330.09271252 108.1855461 331.03066188 C108.18623513 347.86432675 108.1803548 364.69798375 108.17139288 381.53164608 C108.16837405 387.48505447 108.16731307 393.43846142 108.16686058 399.3918705 C108.16617984 406.63452702 108.16173389 413.87717024 108.15252777 421.11982111 C108.14789995 424.81628917 108.14486795 428.51274019 108.14612198 432.20921135 C108.14741288 436.20799458 108.14099075 440.20674329 108.13371277 444.20552063 C108.13526137 445.38398428 108.13680997 446.56244793 108.1384055 447.77662259 C108.13518106 448.84075665 108.13195661 449.90489071 108.12863445 451.00127125 C108.12793003 451.92497385 108.1272256 452.84867645 108.12649983 453.80037004 C108 456 108 456 107 458 C-58.66 458 -224.32 458 -395 458 C-395 434.24 -395 410.48 -395 386 C-347.48 386 -299.96 386 -251 386 C-251 378.74 -251 371.48 -251 364 C-227.57 364 -204.14 364 -180 364 C-180 371.26 -180 378.52 -180 386 C-153.24447579 385.96200886 -126.48909154 385.90300657 -99.73367882 385.81609726 C-87.31089433 385.77627443 -74.88817348 385.74389839 -62.46533203 385.72900391 C-51.6385884 385.71600424 -40.81198461 385.68908261 -29.98531973 385.64538693 C-24.25175197 385.62273433 -18.51835694 385.6070916 -12.78474045 385.60811615 C-7.38878101 385.60886051 -1.99320397 385.59099971 3.40265656 385.55883217 C5.38356406 385.55030914 7.36451435 385.54859948 9.34543228 385.55419731 C12.05004193 385.56082252 14.75342966 385.54295229 17.45791626 385.51898193 C18.24197456 385.52674235 19.02603286 385.53450277 19.8338505 385.54249835 C25.05995827 385.46049119 28.08370969 384.46778794 32 381 C35.99046335 375.58692513 36.57895096 371.46748781 36.50793457 364.85809326 C36.51417453 363.95896941 36.5204145 363.05984557 36.52684355 362.13347554 C36.54275201 359.1313573 36.53017702 356.13005345 36.51757812 353.12792969 C36.52300064 350.97055591 36.53012403 348.81318583 36.53881836 346.65582275 C36.55705211 340.79968404 36.54998032 334.94382731 36.53730202 329.08768368 C36.52715913 322.94396657 36.53657273 316.80027326 36.54284668 310.65655518 C36.55012589 300.32665695 36.540535 289.99687305 36.52148438 279.66699219 C36.49978433 267.76391011 36.50671592 255.86110285 36.52879 243.9580276 C36.54701895 233.71476305 36.54946378 223.47158066 36.53903532 213.2283051 C36.53283252 207.12162744 36.53187417 201.01507827 36.54518127 194.90840912 C36.556846 189.15284834 36.54852234 183.39763634 36.52560425 177.64211273 C36.52037038 175.54409358 36.52173802 173.44604445 36.53065491 171.34803772 C36.65522005 139.02661772 27.2187605 110.82432153 4.625 87.25 C-3.65596772 79.28977399 -13.23499348 72.97818313 -23 67 C-22.154375 66.05125 -21.30875 65.1025 -20.4375 64.125 C-7.20738408 48.56015774 -0.73424752 32.1625799 -0.3125 11.75 C-0.27833984 10.61175781 -0.24417969 9.47351563 -0.20898438 8.30078125 C-0.12760707 5.53395298 -0.05810893 2.7673977 0 0 Z " fill="#2B4657" transform="translate(468,208)"/>
<path d="M0 0 C0.9886724 3.59671364 1.03514485 6.69727769 0.9375 10.4375 C0.8719657 31.60507734 7.85137587 49.85542857 22.49609375 65.22265625 C24 67 24 67 24 69 C22.1640625 70.2265625 22.1640625 70.2265625 19.625 71.625 C-3.27278322 85.00348009 -21.6994631 108.41268135 -29 134 C-31.4939908 144.08830512 -33.12330881 153.96076005 -33.20532227 164.34375 C-33.21522186 165.13495743 -33.22512146 165.92616486 -33.23532104 166.74134827 C-33.26662703 169.32753624 -33.29156971 171.91374251 -33.31640625 174.5 C-33.33700255 176.30461067 -33.35799968 178.1092168 -33.37937927 179.91381836 C-33.43432378 184.64178779 -33.48385377 189.36979874 -33.53222656 194.09783936 C-33.59152364 199.7823486 -33.65759822 205.46678268 -33.72252655 211.15122986 C-33.82018805 219.7674403 -33.9092818 228.38370106 -34 237 C-57.43 237 -80.86 237 -105 237 C-105.16043524 214.6727628 -105.16043524 214.6727628 -105.1953125 205.015625 C-105.21904864 198.47479971 -105.24685362 191.93420234 -105.30175781 185.39355469 C-105.34582998 180.10908673 -105.3692638 174.82486381 -105.37950897 169.54022598 C-105.386792 167.54320553 -105.40100625 165.54619557 -105.42292023 163.54928207 C-105.92141122 116.15663602 -87.20681228 72.685882 -54.60009766 38.57495117 C-38.62126333 22.28082646 -20.35162605 10.20157458 0 0 Z " fill="#2A4556" transform="translate(322,208)"/>
<path d="M0 0 C1.41345703 0.47759766 1.41345703 0.47759766 2.85546875 0.96484375 C10.34586479 3.78442249 16.14019587 7.57152795 22 13 C22.84498047 13.78117188 22.84498047 13.78117188 23.70703125 14.578125 C34.50435555 25.859762 37.19574893 40.5370836 37.265625 55.54296875 C36.23967783 68.89536946 29.40528203 82.02066501 19.55859375 90.953125 C6.47664974 101.41868021 -7.57830357 104.42831861 -24 103 C-37.4742295 101.12065541 -49.55833134 93.50620719 -58 83 C-60.30289298 79.45295933 -62.21936596 75.83249048 -64 72 C-64.32742187 71.32710938 -64.65484375 70.65421875 -64.9921875 69.9609375 C-69.62984978 59.93475334 -70.01137651 44.50921594 -66.4375 34.0625 C-65.67955223 32.34980398 -64.86399445 30.66172383 -64 29 C-63.49082031 27.99453125 -62.98164063 26.9890625 -62.45703125 25.953125 C-55.18933632 12.58189681 -44.41723435 4.14230729 -30.125 -1 C-20.7670341 -3.3974954 -9.14523804 -3.10255855 0 0 Z " fill="#D78C32" transform="translate(212,10)"/>
<path d="M0 0 C3.39995133 2.60326307 6.50498567 5.31109518 9.375 8.5 C10.07689453 9.21349609 10.07689453 9.21349609 10.79296875 9.94140625 C20.89633228 20.72005886 23.86445488 33.39298003 23.62109375 47.72265625 C22.57951857 63.71000861 14.94289031 75.5227202 3.4765625 86.28125 C-9.08688809 96.67127665 -25.1011248 97.62460762 -40.625 96.5 C-44.67974497 95.70271869 -47.99875945 94.457688 -51.625 92.5 C-52.94371094 91.79423828 -52.94371094 91.79423828 -54.2890625 91.07421875 C-66.10389404 84.33035473 -75.38202429 74.73304307 -79.625 61.5 C-83.06498487 48.88250259 -83.8059435 34.32607765 -77.625 22.5 C-77.17769531 21.64148438 -76.73039062 20.78296875 -76.26953125 19.8984375 C-67.724608 4.73291688 -56.11660162 -2.83878381 -39.73046875 -8.109375 C-25.74677222 -10.70375284 -11.77794182 -7.95054566 0 0 Z " fill="#2A4556" transform="translate(424.625,176.5)"/>
<path d="M0 0 C10.36122905 8.07118924 19.52711842 18.72373589 22 32 C23.37720077 44.5871927 23.2383436 56.73939498 17 68 C16.48050781 68.97066406 15.96101563 69.94132812 15.42578125 70.94140625 C7.83592503 83.94500607 -3.53544979 90.83538565 -17.63085938 95.39575195 C-21.51141856 96.38548649 -25.26153749 96.4894213 -29.25 96.4375 C-30.48834595 96.42614014 -30.48834595 96.42614014 -31.75170898 96.41455078 C-46.59724372 96.01890089 -59.75438734 89.71520324 -70 79 C-80.80378812 66.26053318 -84.17047487 51.38664824 -83 35 C-82.11137511 30.76506769 -80.74045202 26.95557278 -79 23 C-78.59910156 22.07574219 -78.19820313 21.15148437 -77.78515625 20.19921875 C-71.51781667 7.35571417 -60.41135014 -2.03715322 -47.13671875 -7.08984375 C-31.21276229 -11.76575519 -13.69344807 -9.60256108 0 0 Z " fill="#D78C32" transform="translate(337,17)"/>
</svg>
