<?xml version="1.0" encoding="UTF-8" standalone="no"?>
<!DOCTYPE svg PUBLIC "-//W3C//DTD SVG 1.1//EN" "http://www.w3.org/Graphics/SVG/1.1/DTD/svg11.dtd"[]>
<svg xmlns="http://www.w3.org/2000/svg" xmlns:xlink="http://www.w3.org/1999/xlink" version="1.1" width="1080" height="1080" viewBox="270 378 518 324" xml:space="preserve">
<desc>Created with Fabric.js 5.2.4</desc>
<defs>
</defs>
<g transform="matrix(1 0 0 1 540 540)" id="6a3d1478-72d3-48ae-8fe9-292b6169d41a">
<rect style="stroke: none; stroke-width: 1; stroke-dasharray: none; stroke-linecap: butt; stroke-dashoffset: 0; stroke-linejoin: miter; stroke-miterlimit: 4; fill: rgb(255,255,255); fill-rule: nonzero; opacity: 1; visibility: hidden;" vector-effect="non-scaling-stroke" x="-540" y="-540" rx="0" ry="0" width="1080" height="1080" />
</g>
<g transform="matrix(1 0 0 1 540 540)" id="07dde051-cc55-4580-a7e1-7a9d332730bb">
</g>
<g transform="matrix(1 0 0 -1 557.84 536.82)" clip-path="url(#CLIPPATH_3)">
<clipPath id="CLIPPATH_3">
	<path transform="matrix(1 0 0 1 -17.84 -74.53) translate(-317.57, -211.67)" id="clip_0" d="M 0 423.349 L 635.142 423.349 L 635.142 0 L 0 0 Z" stroke-linecap="round" />
</clipPath>
<path style="stroke: none; stroke-width: 1; stroke-dasharray: none; stroke-linecap: butt; stroke-dashoffset: 0; stroke-linejoin: miter; stroke-miterlimit: 4; fill: rgb(42,69,86); fill-rule: nonzero; opacity: 1;" vector-effect="non-scaling-stroke" transform=" translate(0, -4.42)" d="M 0 0 C 1.256 0 2.303 0.419 3.14 1.256 C 3.977 2.094 4.396 3.14 4.396 4.396 C 4.396 5.653 3.977 6.707 3.14 7.559 C 2.303 8.412 1.256 8.838 0 8.838 C -1.256 8.838 -2.304 8.412 -3.141 7.559 C -3.978 6.707 -4.396 5.653 -4.396 4.396 C -4.396 3.14 -3.978 2.094 -3.141 1.256 C -2.304 0.419 -1.256 0 0 0" stroke-linecap="round" />
</g>
<g transform="matrix(1 0 0 -1 570.22 536.82)" clip-path="url(#CLIPPATH_4)">
<clipPath id="CLIPPATH_4">
	<path transform="matrix(1 0 0 1 -30.22 -74.53) translate(-317.57, -211.67)" id="clip_0" d="M 0 423.349 L 635.142 423.349 L 635.142 0 L 0 0 Z" stroke-linecap="round" />
</clipPath>
<path style="stroke: none; stroke-width: 1; stroke-dasharray: none; stroke-linecap: butt; stroke-dashoffset: 0; stroke-linejoin: miter; stroke-miterlimit: 4; fill: rgb(42,69,86); fill-rule: nonzero; opacity: 1;" vector-effect="non-scaling-stroke" transform=" translate(-0.04, -4.42)" d="M 0 0 C 0.628 0 1.211 0.112 1.75 0.337 C 2.288 0.561 2.76 0.876 3.163 1.279 C 3.567 1.683 3.881 2.147 4.106 2.67 C 4.329 3.193 4.441 3.769 4.441 4.396 C 4.441 5.025 4.329 5.608 4.106 6.147 C 3.881 6.684 3.567 7.156 3.163 7.559 C 2.76 7.963 2.288 8.278 1.75 8.502 C 1.211 8.725 0.628 8.838 0 8.838 C -1.227 8.838 -2.258 8.412 -3.095 7.559 C -3.933 6.707 -4.352 5.653 -4.352 4.396 C -4.352 3.14 -3.933 2.094 -3.095 1.256 C -2.258 0.419 -1.227 0 0 0" stroke-linecap="round" />
</g>
<g transform="matrix(1 0 0 -1 723.49 536.82)" clip-path="url(#CLIPPATH_5)">
<clipPath id="CLIPPATH_5">
	<path transform="matrix(1 0 0 1 -183.49 -74.53) translate(-317.57, -211.67)" id="clip_0" d="M 0 423.349 L 635.142 423.349 L 635.142 0 L 0 0 Z" stroke-linecap="round" />
</clipPath>
<path style="stroke: none; stroke-width: 1; stroke-dasharray: none; stroke-linecap: butt; stroke-dashoffset: 0; stroke-linejoin: miter; stroke-miterlimit: 4; fill: rgb(42,69,86); fill-rule: nonzero; opacity: 1;" vector-effect="non-scaling-stroke" transform=" translate(-0.02, -4.42)" d="M 0 0 C 1.256 0 2.311 0.419 3.163 1.256 C 4.016 2.094 4.441 3.14 4.441 4.396 C 4.441 5.653 4.016 6.707 3.163 7.559 C 2.311 8.412 1.256 8.838 0 8.838 C -1.256 8.838 -2.303 8.412 -3.14 7.559 C -3.978 6.707 -4.396 5.653 -4.396 4.396 C -4.396 3.14 -3.978 2.094 -3.14 1.256 C -2.303 0.419 -1.256 0 0 0" stroke-linecap="round" />
</g>
<g transform="matrix(1 0 0 -1 630.61 567.12)" clip-path="url(#CLIPPATH_6)">
<clipPath id="CLIPPATH_6">
	<path transform="matrix(1 0 0 1 -90.61 -44.23) translate(-317.57, -211.67)" id="clip_0" d="M 0 423.349 L 635.142 423.349 L 635.142 0 L 0 0 Z" stroke-linecap="round" />
</clipPath>
<path style="stroke: none; stroke-width: 1; stroke-dasharray: none; stroke-linecap: butt; stroke-dashoffset: 0; stroke-linejoin: miter; stroke-miterlimit: 4; fill: rgb(42,69,86); fill-rule: nonzero; opacity: 1;" vector-effect="non-scaling-stroke" transform=" translate(99.77, -10.72)" d="M 0 0 L -9.467 0 C -10.572 0 -11.582 0.156 -12.494 0.47 C -13.407 0.785 -14.214 1.21 -14.917 1.749 C -15.62 2.287 -16.225 2.922 -16.734 3.655 C -17.242 4.389 -17.646 5.173 -17.945 6.011 C -18.244 6.758 -18.454 7.529 -18.572 8.321 C -18.693 9.114 -18.752 9.899 -18.752 10.677 C -18.752 11.992 -18.572 13.294 -18.214 14.579 C -17.855 15.864 -17.294 17.016 -16.531 18.034 C -15.769 19.051 -14.805 19.872 -13.638 20.501 C -12.472 21.129 -11.081 21.443 -9.467 21.443 L 0 21.443 Z M -157.688 0 L -167.154 0 C -168.292 0 -169.315 0.156 -170.228 0.47 C -171.14 0.785 -171.948 1.21 -172.65 1.749 C -173.353 2.287 -173.951 2.922 -174.444 3.655 C -174.938 4.389 -175.335 5.173 -175.633 6.011 C -175.963 6.758 -176.187 7.529 -176.306 8.321 C -176.426 9.114 -176.485 9.899 -176.485 10.677 C -176.485 11.992 -176.299 13.294 -175.925 14.579 C -175.551 15.864 -174.983 17.016 -174.22 18.034 C -173.458 19.051 -172.493 19.872 -171.327 20.501 C -170.16 21.129 -168.769 21.443 -167.154 21.443 L -157.688 21.443 Z M 7.626 26.109 C 7.357 26.767 6.983 27.349 6.505 27.858 C 6.027 28.367 5.457 28.771 4.801 29.069 C 4.141 29.368 3.439 29.519 2.691 29.519 L -9.467 29.519 C -12.308 29.519 -14.805 28.988 -16.958 27.925 C -19.111 26.863 -20.913 25.451 -22.364 23.686 C -23.814 21.921 -24.913 19.911 -25.661 17.653 C -26.409 15.394 -26.783 13.069 -26.783 10.677 C -26.783 9.031 -26.566 7.312 -26.131 5.518 C -25.698 3.723 -25.018 1.884 -24.09 0 L -33.825 0 L -34.409 0 L -52.085 0 L -53.026 0 L -70.343 0 L -71.286 0 L -88.602 0 L -89.544 0 L -106.86 0 L -107.803 0 L -135.941 0 L -136.883 0 L -149.658 0 L -149.658 24.001 C -149.658 24.747 -149.8 25.451 -150.084 26.109 C -150.368 26.767 -150.75 27.349 -151.228 27.858 C -151.707 28.367 -152.268 28.771 -152.91 29.069 C -153.553 29.368 -154.25 29.519 -154.996 29.519 L -167.154 29.519 C -169.996 29.519 -172.493 28.988 -174.647 27.925 C -176.8 26.863 -178.61 25.451 -180.075 23.686 C -181.54 21.921 -182.647 19.911 -183.394 17.653 C -184.142 15.394 -184.516 13.069 -184.516 10.677 C -184.516 9.031 -184.291 7.312 -183.843 5.518 C -183.394 3.723 -182.707 1.884 -181.779 0 L -189.585 0 C -189.705 0 -189.809 -0.016 -189.899 -0.045 C -191.903 -0.016 -193.533 0.246 -194.789 0.74 C -196.045 1.233 -197.025 1.89 -197.728 2.713 C -198.43 3.535 -198.909 4.485 -199.163 5.562 C -199.417 6.638 -199.544 7.79 -199.544 9.016 C -199.544 10.661 -199.372 12.262 -199.028 13.817 C -198.685 15.372 -198.244 16.732 -197.705 17.899 C -198.363 18.228 -198.977 18.542 -199.544 18.841 C -200.113 19.139 -200.674 19.431 -201.226 19.717 C -201.781 20.001 -202.348 20.299 -202.931 20.614 C -203.515 20.928 -204.135 21.263 -204.793 21.623 C -205.571 20.007 -206.236 18.101 -206.789 15.903 C -207.344 13.704 -207.62 11.453 -207.62 9.151 C -207.62 6.998 -207.305 4.889 -206.677 2.826 C -206.05 0.762 -205.017 -1.077 -203.582 -2.692 C -202.147 -4.308 -200.285 -5.608 -197.997 -6.595 C -195.708 -7.583 -192.905 -8.075 -189.585 -8.075 L -136.883 -8.075 L -135.941 -8.075 L -107.803 -8.075 L -106.86 -8.075 L -89.544 -8.075 L -88.602 -8.075 L -71.286 -8.075 L -70.343 -8.075 L -53.026 -8.075 L -52.085 -8.075 L -34.409 -8.075 L -33.825 -8.075 L 4.082 -8.075 C 5.188 -8.075 6.131 -7.687 6.909 -6.909 C 7.686 -6.132 8.076 -5.174 8.076 -4.038 L 8.031 24.001 C 8.031 24.747 7.896 25.451 7.626 26.109" stroke-linecap="round" />
</g>
<g transform="matrix(1 0 0 -1 750.23 503.71)" clip-path="url(#CLIPPATH_7)">
<clipPath id="CLIPPATH_7">
	<path transform="matrix(1 0 0 1 -210.23 -107.64) translate(-317.57, -211.67)" id="clip_0" d="M 0 423.349 L 635.142 423.349 L 635.142 0 L 0 0 Z" stroke-linecap="round" />
</clipPath>
<path style="stroke: none; stroke-width: 1; stroke-dasharray: none; stroke-linecap: butt; stroke-dashoffset: 0; stroke-linejoin: miter; stroke-miterlimit: 4; fill: rgb(42,69,86); fill-rule: nonzero; opacity: 1;" vector-effect="non-scaling-stroke" transform=" translate(5.63, 2)" d="M 0 0 C -0.868 0.329 -1.63 0.674 -2.288 1.032 C -2.886 1.361 -3.185 1.855 -3.185 2.513 L -3.185 2.692 C -3.156 3.111 -2.991 3.485 -2.692 3.814 C -2.453 4.053 -2.124 4.173 -1.705 4.173 L -1.481 4.173 C -1.332 4.173 -1.152 4.143 -0.942 4.083 C -0.733 4.023 -0.554 3.904 -0.404 3.724 L -0.404 3.814 C -0.195 3.663 -0.061 3.387 0 2.984 C 0.059 2.58 0.09 2.153 0.09 1.705 C 0.09 1.166 0.059 0.598 0 0 M 1.929 -0.583 C 2.019 -0.343 2.123 0.022 2.243 0.517 C 2.362 1.011 2.46 1.555 2.534 2.153 C 2.609 2.752 2.661 3.381 2.691 4.038 L 2.691 4.441 C 2.691 4.92 2.661 5.369 2.601 5.788 C 2.482 6.296 2.288 6.721 2.019 7.066 C 1.749 7.41 1.375 7.597 0.897 7.628 L 0.717 7.628 C -0.061 7.628 -0.838 7.432 -1.616 7.044 C -2.453 6.595 -3.193 6.012 -3.836 5.295 C -4.48 4.576 -4.98 3.783 -5.338 2.917 C -5.638 2.198 -5.788 1.51 -5.788 0.853 C -5.788 0.674 -5.773 0.494 -5.743 0.314 C -5.653 -0.523 -5.279 -1.285 -4.621 -1.974 C -3.963 -2.662 -2.931 -3.171 -1.526 -3.498 C -2.363 -4.486 -3.201 -5.301 -4.038 -5.943 C -4.876 -6.587 -5.81 -7.177 -6.842 -7.716 C -7.873 -8.254 -9.056 -8.793 -10.386 -9.331 C -11.716 -9.869 -13.295 -10.513 -15.119 -11.259 C -15.148 -11.259 -15.163 -11.275 -15.163 -11.304 L -15.074 -11.304 C -15.014 -11.335 -14.835 -11.365 -14.535 -11.394 C -14.237 -11.424 -13.81 -11.455 -13.257 -11.484 C -12.704 -11.514 -11.994 -11.559 -11.126 -11.619 L -10.723 -11.619 C -9.585 -11.619 -8.435 -11.394 -7.268 -10.946 C -6.012 -10.438 -4.846 -9.802 -3.769 -9.039 C -2.692 -8.276 -1.757 -7.455 -0.964 -6.572 C -0.173 -5.69 0.388 -4.905 0.717 -4.217 L 3.05 -4.754 L 3.902 -1.166 Z" stroke-linecap="round" />
</g>
<g transform="matrix(1 0 0 -1 752.45 520.22)" clip-path="url(#CLIPPATH_8)">
<clipPath id="CLIPPATH_8">
	<path transform="matrix(1 0 0 1 -212.45 -91.13) translate(-317.57, -211.67)" id="clip_0" d="M 0 423.349 L 635.142 423.349 L 635.142 0 L 0 0 Z" stroke-linecap="round" />
</clipPath>
<path style="stroke: none; stroke-width: 1; stroke-dasharray: none; stroke-linecap: butt; stroke-dashoffset: 0; stroke-linejoin: miter; stroke-miterlimit: 4; fill: rgb(42,69,86); fill-rule: nonzero; opacity: 1;" vector-effect="non-scaling-stroke" transform=" translate(-1.03, -1.41)" d="M 0 0 C -0.33 0.417 -0.494 0.881 -0.494 1.39 C -0.494 1.929 -0.314 2.429 0.045 2.893 C 0.403 3.357 0.987 3.588 1.794 3.588 L 6.773 3.543 L 6.773 7.267 L 1.794 7.267 C 0.897 7.267 0.096 7.102 -0.606 6.773 C -1.309 6.444 -1.893 6.003 -2.355 5.451 C -2.82 4.896 -3.17 4.268 -3.41 3.565 C -3.65 2.863 -3.769 2.137 -3.769 1.39 C -3.769 1.032 -3.746 0.672 -3.702 0.313 C -3.657 -0.045 -3.56 -0.39 -3.41 -0.719 L -5.115 -0.719 L -5.115 -4.441 L 7.177 -4.441 L 7.177 -0.719 L 1.569 -0.719 C 0.852 -0.659 0.328 -0.42 0 0" stroke-linecap="round" />
</g>
<g transform="matrix(1 0 0 -1 753.41 558.91)" clip-path="url(#CLIPPATH_9)">
<clipPath id="CLIPPATH_9">
	<path transform="matrix(1 0 0 1 -213.41 -52.44) translate(-317.57, -211.67)" id="clip_0" d="M 0 423.349 L 635.142 423.349 L 635.142 0 L 0 0 Z" stroke-linecap="round" />
</clipPath>
<path style="stroke: none; stroke-width: 1; stroke-dasharray: none; stroke-linecap: butt; stroke-dashoffset: 0; stroke-linejoin: miter; stroke-miterlimit: 4; fill: rgb(42,69,86); fill-rule: nonzero; opacity: 1;" vector-effect="non-scaling-stroke" transform=" translate(-530.99, -264.11)" d="M 526.97 237.195 L 535.001 237.195 L 535.001 291.029 L 526.97 291.029 Z" stroke-linecap="round" />
</g>
<g transform="matrix(1 0 0 -1 404.11 573.07)" clip-path="url(#CLIPPATH_10)">
<clipPath id="CLIPPATH_10">
	<path transform="matrix(1 0 0 1 135.89 -6.84) translate(-317.57, -211.67)" id="clip_0" d="M 0 423.349 L 635.142 423.349 L 635.142 0 L 0 0 Z" stroke-linecap="round" />
</clipPath>
<path style="stroke: none; stroke-width: 1; stroke-dasharray: none; stroke-linecap: butt; stroke-dashoffset: 0; stroke-linejoin: miter; stroke-miterlimit: 4; fill: rgb(42,69,86); fill-rule: nonzero; opacity: 1;" vector-effect="non-scaling-stroke" transform=" translate(47.27, 76.05)" d="M 0 0 C 0.273 -1.458 0.422 -2.96 0.422 -4.498 C 0.422 -11.621 -2.641 -18.028 -7.52 -22.476 C 4.283 -28.376 12.412 -40.577 12.412 -54.647 L 12.412 -122.829 C 12.412 -125.919 9.898 -128.433 6.808 -128.433 L -59.559 -128.433 L -59.559 -121.046 L -83.154 -121.046 L -83.154 -128.433 L -130.607 -128.433 L -130.607 -152.092 L 34.963 -152.092 C 35.574 -152.092 36.07 -151.595 36.07 -150.983 L 36.07 -55.618 C 36.07 -30.854 21.164 -9.343 0 0" stroke-linecap="round" />
</g>
<g transform="matrix(1 0 0 -1 389.84 536.67)" clip-path="url(#CLIPPATH_11)">
<clipPath id="CLIPPATH_11">
	<path transform="matrix(1 0 0 1 150.16 -43.23) translate(-317.57, -211.67)" id="clip_0" d="M 0 423.349 L 635.142 423.349 L 635.142 0 L 0 0 Z" stroke-linecap="round" />
</clipPath>
<path style="stroke: none; stroke-width: 1; stroke-dasharray: none; stroke-linecap: butt; stroke-dashoffset: 0; stroke-linejoin: miter; stroke-miterlimit: 4; fill: rgb(42,69,86); fill-rule: nonzero; opacity: 1;" vector-effect="non-scaling-stroke" transform=" translate(13.32, 35.16)" d="M 0 0 C 0 1.442 0.133 2.852 0.373 4.225 C -10.66 -0.734 -20.162 -9.006 -26.531 -19.679 C -30.069 -25.592 -32.522 -31.995 -33.828 -38.727 C -34.561 -42.435 -34.933 -46.278 -34.933 -50.15 L -34.933 -72.067 L -34.933 -74.539 L -11.338 -74.539 L -11.275 -74.539 L -11.275 -50.835 C -11.275 -36.807 -3.284 -24.42 8.293 -18.285 C 3.212 -13.827 0 -7.291 0 0" stroke-linecap="round" />
</g>
<g transform="matrix(1 0 0 -1 379.85 538.23)" clip-path="url(#CLIPPATH_12)">
<clipPath id="CLIPPATH_12">
	<path transform="matrix(1 0 0 1 160.15 -41.67) translate(-317.57, -211.67)" id="clip_0" d="M 0 423.349 L 635.142 423.349 L 635.142 0 L 0 0 Z" stroke-linecap="round" />
</clipPath>
<path style="stroke: none; stroke-width: 1; stroke-dasharray: none; stroke-linecap: butt; stroke-dashoffset: 0; stroke-linejoin: miter; stroke-miterlimit: 4; fill: rgb(215,140,50); fill-rule: nonzero; opacity: 1;" vector-effect="non-scaling-stroke" transform=" translate(38.44, 7.23)" d="M 0 0 C -0.174 0.005 -0.347 0.007 -0.52 0.007 C -1.168 0.007 -1.828 -0.024 -2.49 -0.087 L -2.49 -52.047 C -2.49 -54.596 -4.322 -56.807 -6.791 -57.291 C -7.138 -57.369 -7.493 -57.408 -7.852 -57.408 L -19.075 -57.408 L -26.471 -57.408 L -50.066 -57.408 L -62.817 -57.408 L -69.079 -57.408 C -71.697 -57.408 -73.796 -55.354 -73.86 -52.669 L -74.303 4.874 L -74.398 16.437 C -74.363 36.23 -58.234 52.332 -38.444 52.332 C -33.018 52.332 -27.801 51.145 -22.98 48.825 C -22.98 48.825 -16.651 45.772 -13.137 39.135 C -9.56 47.396 -1.538 53.282 7.916 53.77 C 4.538 57.948 0.634 61.617 -3.668 64.713 C -8 60.725 -13.781 58.288 -20.133 58.288 C -27.438 58.288 -33.986 61.513 -38.444 66.612 C -42.902 61.513 -49.45 58.288 -56.755 58.288 C -63.119 58.288 -68.91 60.735 -73.244 64.736 C -88.665 53.585 -98.057 35.509 -98.057 16.378 L -97.52 -52.452 L -97.52 -81.066 L -68.297 -81.066 L -50.066 -81.066 L -26.471 -81.066 L -19.737 -81.066 L 21.168 -81.066 L 21.168 -22.192 C 21.168 -10.21 11.681 -0.254 0 0" stroke-linecap="round" />
</g>
<g transform="matrix(1 0 0 -1 398.16 448.39)" clip-path="url(#CLIPPATH_13)">
<clipPath id="CLIPPATH_13">
	<path transform="matrix(1 0 0 1 141.84 -131.51) translate(-317.57, -211.67)" id="clip_0" d="M 0 423.349 L 635.142 423.349 L 635.142 0 L 0 0 Z" stroke-linecap="round" />
</clipPath>
<path style="stroke: none; stroke-width: 1; stroke-dasharray: none; stroke-linecap: butt; stroke-dashoffset: 0; stroke-linejoin: miter; stroke-miterlimit: 4; fill: rgb(215,140,50); fill-rule: nonzero; opacity: 1;" vector-effect="non-scaling-stroke" transform=" translate(0, 17.5)" d="M 0 0 C -5.983 0 -11.258 -3.006 -14.415 -7.586 C -16.357 -10.405 -17.5 -13.818 -17.5 -17.5 C -17.5 -19.868 -17.025 -22.124 -16.172 -24.184 C -15.699 -25.328 -15.108 -26.409 -14.415 -27.415 C -11.258 -31.995 -5.983 -35.001 0 -35.001 C 3.896 -35.001 7.483 -33.712 10.391 -31.559 C 14.697 -28.371 17.5 -23.269 17.5 -17.5 C 17.5 -7.835 9.665 0 0 0" stroke-linecap="round" />
</g>
<g transform="matrix(1 0 0 -1 361.54 448.39)" clip-path="url(#CLIPPATH_14)">
<clipPath id="CLIPPATH_14">
	<path transform="matrix(1 0 0 1 178.46 -131.51) translate(-317.57, -211.67)" id="clip_0" d="M 0 423.349 L 635.142 423.349 L 635.142 0 L 0 0 Z" stroke-linecap="round" />
</clipPath>
<path style="stroke: none; stroke-width: 1; stroke-dasharray: none; stroke-linecap: butt; stroke-dashoffset: 0; stroke-linejoin: miter; stroke-miterlimit: 4; fill: rgb(215,140,50); fill-rule: nonzero; opacity: 1;" vector-effect="non-scaling-stroke" transform=" translate(0, 17.5)" d="M 0 0 C -9.665 0 -17.5 -7.835 -17.5 -17.5 C -17.5 -23.25 -14.716 -28.335 -10.435 -31.526 C -7.519 -33.699 -3.916 -35.001 0 -35.001 C 5.983 -35.001 11.258 -31.995 14.415 -27.415 C 15.113 -26.402 15.706 -25.312 16.181 -24.16 C 17.027 -22.106 17.5 -19.859 17.5 -17.5 C 17.5 -13.818 16.357 -10.405 14.415 -7.586 C 11.258 -3.006 5.983 0 0 0" stroke-linecap="round" />
</g>
<g transform="matrix(1 0 0 -1 427.48 501.52)" clip-path="url(#CLIPPATH_15)">
<clipPath id="CLIPPATH_15">
	<path transform="matrix(1 0 0 1 112.52 -78.38) translate(-317.57, -211.67)" id="clip_0" d="M 0 423.349 L 635.142 423.349 L 635.142 0 L 0 0 Z" stroke-linecap="round" />
</clipPath>
<path style="stroke: none; stroke-width: 1; stroke-dasharray: none; stroke-linecap: butt; stroke-dashoffset: 0; stroke-linejoin: miter; stroke-miterlimit: 4; fill: rgb(42,69,86); fill-rule: nonzero; opacity: 1;" vector-effect="non-scaling-stroke" transform=" translate(15.86, 7.37)" d="M 0 0 C -2.784 5.977 -8.828 10.13 -15.856 10.13 C -17.092 10.13 -18.297 9.999 -19.46 9.755 C -24.998 8.596 -29.562 4.815 -31.821 -0.225 C -32.276 -1.238 -32.633 -2.302 -32.889 -3.406 C -33.185 -4.681 -33.357 -6.004 -33.357 -7.37 C -33.357 -13.976 -29.694 -19.722 -24.292 -22.701 C -21.79 -24.081 -18.916 -24.87 -15.856 -24.87 C -12.694 -24.87 -9.736 -24.019 -7.176 -22.552 C -1.911 -19.535 1.644 -13.873 1.644 -7.37 C 1.644 -4.733 1.044 -2.242 0 0" stroke-linecap="round" />
</g>
</svg>